<svg width="65" height="65" viewBox="0 0 65 65" fill="none" xmlns="http://www.w3.org/2000/svg">
<path d="M1 32.5C1 15.103 15.103 1 32.5 1C49.897 1 64 15.103 64 32.5C64 49.897 49.897 64 32.5 64C15.103 64 1 49.897 1 32.5Z" fill="white" stroke="#F3F3F3" stroke-width="2"/>
<mask id="mask0_1402_6" style="mask-type:luminance" maskUnits="userSpaceOnUse" x="16" y="17" width="33" height="32">
<path d="M49 17H16V48.7985H49V17Z" fill="white"/>
</mask>
<g mask="url(#mask0_1402_6)">
<path d="M40.6258 39.1645L48.383 34.2475C48.7942 33.9863 49.0482 33.5019 49.0482 32.9821V23.1479C49.0482 22.628 48.7942 22.1436 48.383 21.8825L40.6258 16.9654C40.2146 16.7042 39.7041 16.7067 39.2952 16.9654L31.538 21.8825C31.1268 22.1436 30.8727 22.628 30.8727 23.1479V40.7216L25.4325 44.1679L19.9923 40.7216V33.8265L25.4325 30.3802L29.02 32.6549V28.0295L26.0978 26.1757C25.8968 26.0489 25.6658 25.9805 25.4325 25.9805C25.1991 25.9805 24.9682 26.0489 24.7672 26.1757L17.01 31.0928C16.5988 31.354 16.3447 31.8384 16.3447 32.3582V42.1924C16.3447 42.7123 16.5988 43.1967 17.01 43.4579L24.7672 48.3749C25.1784 48.6336 25.6866 48.6336 26.0978 48.3749L33.855 43.4579C34.2662 43.1967 34.5203 42.7123 34.5203 42.1924V24.6187L34.6173 24.5578L39.9581 21.1724L45.3984 24.6187V31.5138L39.9581 34.9601L36.3752 32.6904V37.3159L39.2929 39.1645C39.7041 39.4232 40.2146 39.4232 40.6235 39.1645H40.6258Z" fill="url(#paint0_linear_1402_6)"/>
</g>
<defs>
<linearGradient id="paint0_linear_1402_6" x1="16.2385" y1="43.1561" x2="49.051" y2="25.8067" gradientUnits="userSpaceOnUse">
<stop stop-color="#A726C1"/>
<stop offset="0.88" stop-color="#803BDF"/>
<stop offset="1" stop-color="#7B3FE4"/>
</linearGradient>
</defs>
</svg>
