<svg width="65" height="65" viewBox="0 0 65 65" fill="none" xmlns="http://www.w3.org/2000/svg">
<path d="M1 32.5C1 15.103 15.103 1 32.5 1C49.897 1 64 15.103 64 32.5C64 49.897 49.897 64 32.5 64C15.103 64 1 49.897 1 32.5Z" fill="white" stroke="#F3F3F3" stroke-width="2"/>
<g clip-path="url(#clip0_1402_10)">
<mask id="mask0_1402_10" style="mask-type:luminance" maskUnits="userSpaceOnUse" x="2" y="2" width="61" height="61">
<path d="M63 2H2V63H63V2Z" fill="white"/>
</mask>
<g mask="url(#mask0_1402_10)">
<path fill-rule="evenodd" clip-rule="evenodd" d="M2 32.4996C2 49.3442 15.6549 62.9992 32.4996 62.9992C49.3442 62.9992 63 49.3442 63 32.4996C63 15.6549 49.3442 2 32.4996 2C15.6549 2 2 15.6549 2 32.4996Z" fill="#0C0C4F"/>
<path fill-rule="evenodd" clip-rule="evenodd" d="M19.0467 25.3142L19.7996 22.9882C19.9526 22.5151 20.326 22.147 20.8008 22.0017L23.1382 21.2829C23.4617 21.1841 23.4644 20.7276 23.1434 20.6236L20.8166 19.8707C20.3444 19.7177 19.9762 19.3442 19.8302 18.8694L19.1122 16.532C19.0134 16.2094 18.557 16.2058 18.4529 16.5276L17.7 18.8537C17.547 19.3259 17.1736 19.694 16.6987 19.8401L14.3613 20.558C14.0378 20.6577 14.0343 21.1132 14.3561 21.2173L16.683 21.9702C17.1552 22.1233 17.5234 22.4975 17.6694 22.9724L18.3873 25.3089C18.4861 25.6323 18.9426 25.636 19.0467 25.3142Z" fill="#FAFAFA"/>
<path fill-rule="evenodd" clip-rule="evenodd" d="M55.9919 23.9604C55.0283 22.8828 53.5246 22.2762 52.0625 22.0273C50.5888 21.7884 49.0434 21.8105 47.5886 22.069C44.6448 22.5669 41.9705 23.786 39.6378 25.2896C38.4266 26.0277 37.3936 26.8815 36.3234 27.7512C35.8078 28.1911 35.3375 28.6595 34.848 29.1212L33.5102 30.4521C32.0564 31.9718 30.6237 33.3557 29.2373 34.5029C27.8454 35.6448 26.544 36.5119 25.2616 37.1175C23.9799 37.7264 22.6085 38.0844 20.821 38.1416C19.0492 38.2041 16.953 37.8844 14.7108 37.3566C12.4565 36.831 10.0892 36.0821 7.44385 35.4375C8.36689 37.9982 9.75683 40.2611 11.5414 42.3298C13.3469 44.3626 15.6014 46.2149 18.4976 47.4334C21.3519 48.6789 24.9391 49.1259 28.2929 48.4515C31.6559 47.804 34.607 46.2481 36.9923 44.4482C39.3839 42.6302 41.3187 40.5593 42.9499 38.4062C43.4002 37.8112 43.6383 37.4784 43.9642 37.0134L44.8649 35.6793C45.4907 34.8542 46.0605 33.9146 46.6799 33.0971C47.8943 31.3847 49.092 29.6744 50.4834 28.0987C51.1838 27.2994 51.9224 26.535 52.7942 25.8003C53.2288 25.4417 53.6987 25.0908 54.2191 24.7746C54.7473 24.4335 55.3051 24.1667 55.9919 23.9604Z" fill="#EC796B"/>
<path fill-rule="evenodd" clip-rule="evenodd" d="M55.9919 23.9602C54.957 21.3481 53.0322 19.1492 50.4491 17.5267C47.8818 15.9219 44.3159 15.103 40.7821 15.8011C39.0366 16.1387 37.3453 16.7887 35.8611 17.6543C34.3838 18.5164 33.0597 19.5543 31.9137 20.6677C31.3414 21.2263 30.8222 21.809 30.3061 22.395L28.9689 24.0999L26.9035 26.8444C24.2704 30.3757 21.4348 34.514 16.7814 35.7402C12.2133 36.944 10.232 35.8779 7.44385 35.4373C7.95367 36.7536 8.58514 38.0318 9.44122 39.1562C10.2814 40.3034 11.2737 41.3808 12.5075 42.3048C13.131 42.7484 13.7892 43.1863 14.5203 43.5576C15.2481 43.9162 16.0329 44.232 16.8706 44.4695C18.5369 44.9263 20.4129 45.0864 22.2292 44.8405C24.0464 44.598 25.7834 44.0223 27.3017 43.2575C28.8313 42.4998 30.1635 41.577 31.3532 40.6033C33.7181 38.6395 35.5577 36.4694 37.1114 34.2759C37.893 33.1792 38.6025 32.0618 39.2586 30.9441L40.0309 29.6136C40.267 29.2245 40.5057 28.8331 40.7482 28.4687C41.7269 27.0043 42.684 25.8302 43.8464 24.9488C44.9926 24.0446 46.5891 23.3767 48.7222 23.2215C50.8464 23.0644 53.2987 23.3546 55.9919 23.9602Z" fill="#FAFAFA"/>
<path fill-rule="evenodd" clip-rule="evenodd" d="M44.4995 45.664C44.4995 47.5828 46.0558 49.1387 47.974 49.1387C49.8929 49.1387 51.4468 47.5828 51.4468 45.664C51.4468 43.7457 49.8929 42.1893 47.974 42.1893C46.0558 42.1893 44.4995 43.7457 44.4995 45.664Z" fill="#EC796B"/>
</g>
</g>
<defs>
<clipPath id="clip0_1402_10">
<rect width="61" height="61" fill="white" transform="translate(2 2)"/>
</clipPath>
</defs>
</svg>
