<svg width="65" height="65" viewBox="0 0 65 65" fill="none" xmlns="http://www.w3.org/2000/svg">
<path d="M1 32.5C1 15.103 15.103 1 32.5 1C49.897 1 64 15.103 64 32.5C64 49.897 49.897 64 32.5 64C15.103 64 1 49.897 1 32.5Z" fill="white" stroke="#F3F3F3" stroke-width="2"/>
<g clip-path="url(#clip0_1402_7)">
<mask id="mask0_1402_7" style="mask-type:luminance" maskUnits="userSpaceOnUse" x="15" y="16" width="34" height="34">
<path d="M32 50C22.6106 50 15 42.3894 15 33C15 23.6106 22.6106 16 32 16C41.3894 16 49 23.6106 49 33C49 42.3894 41.3894 50 32 50Z" fill="white"/>
</mask>
<g mask="url(#mask0_1402_7)">
<path fill-rule="evenodd" clip-rule="evenodd" d="M31.9999 33L7.95508 32.8518L7.97684 31.9678L31.9999 33Z" fill="#FEFEFF"/>
<path fill-rule="evenodd" clip-rule="evenodd" d="M31.9998 33L7.97266 32.1147L8.00938 31.3775L31.9998 33Z" fill="#FDFEFF"/>
<path fill-rule="evenodd" clip-rule="evenodd" d="M32 33L8.00146 31.5258L8.05586 30.79L32 33Z" fill="#FCFDFF"/>
<path fill-rule="evenodd" clip-rule="evenodd" d="M32 33L8.04492 30.9369L8.117 30.2025L32 33Z" fill="#FBFCFF"/>
<path fill-rule="evenodd" clip-rule="evenodd" d="M32.0001 33L8.10352 30.3494L8.19328 29.6177L32.0001 33Z" fill="#FAFCFF"/>
<path fill-rule="evenodd" clip-rule="evenodd" d="M31.9998 33L8.17529 29.7646L8.28273 29.0342L31.9998 33Z" fill="#F9FBFF"/>
<path fill-rule="evenodd" clip-rule="evenodd" d="M31.9996 33L8.26221 29.1798L8.38733 28.4535L31.9996 33Z" fill="#F8FAFF"/>
<path fill-rule="evenodd" clip-rule="evenodd" d="M32.0001 33L8.36328 28.599L8.50608 27.8755L32.0001 33Z" fill="#F7FAFF"/>
<path fill-rule="evenodd" clip-rule="evenodd" d="M32.0001 33L8.47754 28.021L8.63938 27.3002L32.0001 33Z" fill="#F6F9FF"/>
<path fill-rule="evenodd" clip-rule="evenodd" d="M31.9998 33L8.60645 27.4444L8.78597 26.729L31.9998 33Z" fill="#F5F8FF"/>
<path fill-rule="evenodd" clip-rule="evenodd" d="M31.9997 33L8.75049 26.8718L8.94633 26.1606L31.9997 33Z" fill="#F4F8FF"/>
<path fill-rule="evenodd" clip-rule="evenodd" d="M32 33L8.90723 26.3034L9.12211 25.5975L32 33Z" fill="#F3F7FF"/>
<path fill-rule="evenodd" clip-rule="evenodd" d="M32.0001 33L9.07861 25.739L9.31117 25.0386L32.0001 33Z" fill="#F2F6FF"/>
<path fill-rule="evenodd" clip-rule="evenodd" d="M31.9997 33L9.26318 25.1786L9.51206 24.4837L31.9997 33Z" fill="#F1F6FF"/>
<path fill-rule="evenodd" clip-rule="evenodd" d="M31.9999 33L9.46338 24.6224L9.72858 23.9342L31.9999 33Z" fill="#F0F5FF"/>
<path fill-rule="evenodd" clip-rule="evenodd" d="M31.9997 33L9.67529 24.0716L9.95681 23.3902L31.9997 33Z" fill="#EFF4FF"/>
<path fill-rule="evenodd" clip-rule="evenodd" d="M32 33L9.90137 23.5262L10.2006 22.853L32 33Z" fill="#EEF3FF"/>
<path fill-rule="evenodd" clip-rule="evenodd" d="M31.9999 33L10.1406 22.9877L10.4561 22.3213L31.9999 33Z" fill="#EDF3FF"/>
<path fill-rule="evenodd" clip-rule="evenodd" d="M31.9998 33L10.3921 22.4546L10.7239 21.795L31.9998 33Z" fill="#ECF2FF"/>
<path fill-rule="evenodd" clip-rule="evenodd" d="M31.9997 33L10.6572 21.9269L11.0054 21.2768L31.9997 33Z" fill="#EBF1FF"/>
<path fill-rule="evenodd" clip-rule="evenodd" d="M31.9997 33L10.936 21.4073L11.2992 20.7641L31.9997 33Z" fill="#EAF1FF"/>
<path fill-rule="evenodd" clip-rule="evenodd" d="M31.9997 33L11.2271 20.8933L11.6065 20.2609L31.9997 33Z" fill="#E9F0FF"/>
<path fill-rule="evenodd" clip-rule="evenodd" d="M31.9996 33L11.5303 20.3874L11.9247 19.7631L31.9996 33Z" fill="#E8EFFF"/>
<path fill-rule="evenodd" clip-rule="evenodd" d="M32 33L11.8462 19.8882L12.2569 19.2749L32 33Z" fill="#E7EFFF"/>
<path fill-rule="evenodd" clip-rule="evenodd" d="M31.9999 33L12.1738 19.3973L12.5981 18.7948L31.9999 33Z" fill="#E6EEFF"/>
<path fill-rule="evenodd" clip-rule="evenodd" d="M31.9998 33L12.5137 18.9158L12.953 18.3229L31.9998 33Z" fill="#E5EDFF"/>
<path fill-rule="evenodd" clip-rule="evenodd" d="M31.9999 33L12.8647 18.4412L13.319 17.8591L31.9999 33Z" fill="#E4EDFF"/>
<path fill-rule="evenodd" clip-rule="evenodd" d="M32.0001 33L13.228 17.9761L13.6959 17.4062L32.0001 33Z" fill="#E3ECFF"/>
<path fill-rule="evenodd" clip-rule="evenodd" d="M31.9997 33L13.603 17.5205L14.0845 16.9615L31.9997 33Z" fill="#E2EBFF"/>
<path fill-rule="evenodd" clip-rule="evenodd" d="M32.0001 33L13.9883 17.073L14.4833 16.5263L32.0001 33Z" fill="#E1EBFF"/>
<path fill-rule="evenodd" clip-rule="evenodd" d="M31.9999 33L14.3838 16.6365L14.8924 16.102L31.9999 33Z" fill="#E0EAFF"/>
<path fill-rule="evenodd" clip-rule="evenodd" d="M32 33L14.7905 16.2094L15.3128 15.6872L32 33Z" fill="#DFE9FF"/>
<path fill-rule="evenodd" clip-rule="evenodd" d="M32 33L15.2095 15.7905L15.7426 15.2833L32 33Z" fill="#DEE9FF"/>
<path fill-rule="evenodd" clip-rule="evenodd" d="M31.9998 33L15.6362 15.3839L16.183 14.8889L31.9998 33Z" fill="#DDE8FF"/>
<path fill-rule="evenodd" clip-rule="evenodd" d="M31.9997 33L16.0728 14.9882L16.6317 14.5067L31.9997 33Z" fill="#DCE7FF"/>
<path fill-rule="evenodd" clip-rule="evenodd" d="M32 33L16.5205 14.6033L17.0903 14.1354L32 33Z" fill="#DBE7FF"/>
<path fill-rule="evenodd" clip-rule="evenodd" d="M32 33L16.9761 14.2279L17.5582 13.775L32 33Z" fill="#DAE6FF"/>
<path fill-rule="evenodd" clip-rule="evenodd" d="M31.9997 33L17.4409 13.8648L18.0339 13.4255L31.9997 33Z" fill="#D9E5FF"/>
<path fill-rule="evenodd" clip-rule="evenodd" d="M31.9997 33L17.9155 13.5139L18.518 13.0896L31.9997 33Z" fill="#D8E5FF"/>
<path fill-rule="evenodd" clip-rule="evenodd" d="M31.9997 33L18.397 13.1739L19.0103 12.7646L31.9997 33Z" fill="#D7E4FF"/>
<path fill-rule="evenodd" clip-rule="evenodd" d="M31.9999 33L18.8882 12.8462L19.5124 12.4518L31.9999 33Z" fill="#D6E3FF"/>
<path fill-rule="evenodd" clip-rule="evenodd" d="M31.9998 33L19.3872 12.5307L20.0196 12.1512L31.9998 33Z" fill="#D5E3FF"/>
<path fill-rule="evenodd" clip-rule="evenodd" d="M31.9998 33L19.8931 12.2273L20.535 11.8642L31.9998 33Z" fill="#D4E2FF"/>
<path fill-rule="evenodd" clip-rule="evenodd" d="M31.9999 33L20.4072 11.9363L21.0573 11.5882L31.9999 33Z" fill="#D3E1FF"/>
<path fill-rule="evenodd" clip-rule="evenodd" d="M31.9999 33L20.9268 11.6575L21.5864 11.327L31.9999 33Z" fill="#D2E0FF"/>
<path fill-rule="evenodd" clip-rule="evenodd" d="M32 33L21.4546 11.3923L22.121 11.0782L32 33Z" fill="#D1E0FF"/>
<path fill-rule="evenodd" clip-rule="evenodd" d="M32.0001 33L21.9878 11.1407L22.6624 10.8415L32.0001 33Z" fill="#D0DFFF"/>
<path fill-rule="evenodd" clip-rule="evenodd" d="M31.9996 33L22.5259 10.9013L23.2086 10.6185L31.9996 33Z" fill="#CFDEFF"/>
<path fill-rule="evenodd" clip-rule="evenodd" d="M31.9997 33L23.0713 10.6756L23.7608 10.4104L31.9997 33Z" fill="#CEDEFF"/>
<path fill-rule="evenodd" clip-rule="evenodd" d="M31.9997 33L23.6221 10.4634L24.317 10.2146L31.9997 33Z" fill="#CDDDFF"/>
<path fill-rule="evenodd" clip-rule="evenodd" d="M32.0001 33L24.1787 10.2635L24.8791 10.0337L32.0001 33Z" fill="#CCDCFF"/>
<path fill-rule="evenodd" clip-rule="evenodd" d="M31.9998 33L24.7388 10.0786L25.4446 9.86505L31.9998 33Z" fill="#CBDCFF"/>
<path fill-rule="evenodd" clip-rule="evenodd" d="M31.9999 33L25.3032 9.9072L26.0145 9.71136L31.9999 33Z" fill="#CADBFF"/>
<path fill-rule="evenodd" clip-rule="evenodd" d="M31.9997 33L25.8716 9.75081L26.5869 9.57129L31.9997 33Z" fill="#C9DAFF"/>
<path fill-rule="evenodd" clip-rule="evenodd" d="M31.9999 33L26.4443 9.60665L27.1638 9.44617L31.9999 33Z" fill="#C8DAFF"/>
<path fill-rule="evenodd" clip-rule="evenodd" d="M32 33L27.021 9.47743L27.7432 9.33463L32 33Z" fill="#C7D9FF"/>
<path fill-rule="evenodd" clip-rule="evenodd" d="M32.0001 33L27.5991 9.3632L28.3254 9.23672L32.0001 33Z" fill="#C6D8FF"/>
<path fill-rule="evenodd" clip-rule="evenodd" d="M31.9999 33L28.1797 9.26255L28.91 9.15375L31.9999 33Z" fill="#C5D8FF"/>
<path fill-rule="evenodd" clip-rule="evenodd" d="M32.0001 33L28.7646 9.17551L29.4963 9.08575L32.0001 33Z" fill="#C4D7FF"/>
<path fill-rule="evenodd" clip-rule="evenodd" d="M31.9998 33L29.3491 9.10345L30.0835 9.03137L31.9998 33Z" fill="#C3D6FF"/>
<path fill-rule="evenodd" clip-rule="evenodd" d="M31.9996 33L29.9365 9.04497L30.6723 8.99057L31.9996 33Z" fill="#C2D6FF"/>
<path fill-rule="evenodd" clip-rule="evenodd" d="M32.0001 33L30.5259 9.00142L31.263 8.96606L32.0001 33Z" fill="#C1D5FF"/>
<path fill-rule="evenodd" clip-rule="evenodd" d="M32.0001 33L31.1147 8.97288L31.8519 8.9552L32.0001 33Z" fill="#C0D4FF"/>
<path fill-rule="evenodd" clip-rule="evenodd" d="M31.9997 33L31.7046 8.95792H32.4417L31.9997 33Z" fill="#BFD4FF"/>
<path fill-rule="evenodd" clip-rule="evenodd" d="M32 33L32.2951 8.95792L33.0322 8.97696L32 33Z" fill="#BED3FF"/>
<path fill-rule="evenodd" clip-rule="evenodd" d="M32 33L32.8854 8.97287L33.6211 9.00959L32 33Z" fill="#BDD2FF"/>
<path fill-rule="evenodd" clip-rule="evenodd" d="M32 33L33.4742 9.00143L34.21 9.05583L32 33Z" fill="#BCD2FF"/>
<path fill-rule="evenodd" clip-rule="evenodd" d="M32 33L34.0631 9.04495L34.7975 9.11703L32 33Z" fill="#BBD1FF"/>
<path fill-rule="evenodd" clip-rule="evenodd" d="M32 33L34.6493 9.10345L35.3823 9.19321L32 33Z" fill="#BAD0FF"/>
<path fill-rule="evenodd" clip-rule="evenodd" d="M32 33L35.2354 9.17551L35.9658 9.28295L32 33Z" fill="#B9D0FF"/>
<path fill-rule="evenodd" clip-rule="evenodd" d="M32 33L35.8189 9.26257L36.5465 9.38769L32 33Z" fill="#B8CFFF"/>
<path fill-rule="evenodd" clip-rule="evenodd" d="M32 33L36.401 9.36319L37.1245 9.50599L32 33Z" fill="#B7CEFF"/>
<path fill-rule="evenodd" clip-rule="evenodd" d="M32 33L36.979 9.47745L37.6998 9.63929L32 33Z" fill="#B6CDFF"/>
<path fill-rule="evenodd" clip-rule="evenodd" d="M32 33L37.5556 9.60663L38.271 9.78615L32 33Z" fill="#B5CDFF"/>
<path fill-rule="evenodd" clip-rule="evenodd" d="M32 33L38.1282 9.75079L38.8381 9.94663L32 33Z" fill="#B4CCFF"/>
<path fill-rule="evenodd" clip-rule="evenodd" d="M32 33L38.6966 9.9072L39.4025 10.1221L32 33Z" fill="#B3CBFF"/>
<path fill-rule="evenodd" clip-rule="evenodd" d="M32 33L39.261 10.0786L39.9614 10.3111L32 33Z" fill="#B2CBFF"/>
<path fill-rule="evenodd" clip-rule="evenodd" d="M32 33L39.8214 10.2635L40.5163 10.5124L32 33Z" fill="#B1CAFF"/>
<path fill-rule="evenodd" clip-rule="evenodd" d="M32 33L40.3776 10.4634L41.0658 10.7286L32 33Z" fill="#B0C9FF"/>
<path fill-rule="evenodd" clip-rule="evenodd" d="M32 33L40.927 10.6756L41.6098 10.9571L32 33Z" fill="#AFC9FF"/>
<path fill-rule="evenodd" clip-rule="evenodd" d="M32 33L41.4724 10.9014L42.147 11.2006L32 33Z" fill="#AEC8FF"/>
<path fill-rule="evenodd" clip-rule="evenodd" d="M32 33L42.0123 11.1407L42.6787 11.4562L32 33Z" fill="#ADC7FF"/>
<path fill-rule="evenodd" clip-rule="evenodd" d="M32 33L42.5454 11.3923L43.205 11.7242L32 33Z" fill="#ACC7FF"/>
<path fill-rule="evenodd" clip-rule="evenodd" d="M32 33L43.0731 11.6575L43.7232 12.0057L32 33Z" fill="#ABC6FF"/>
<path fill-rule="evenodd" clip-rule="evenodd" d="M32 33L43.5926 11.9363L44.2359 12.2994L32 33Z" fill="#AAC5FF"/>
<path fill-rule="evenodd" clip-rule="evenodd" d="M32 33L44.1067 12.2274L44.7391 12.6068L32 33Z" fill="#A9C5FF"/>
<path fill-rule="evenodd" clip-rule="evenodd" d="M32 33L44.6126 12.5306L45.2355 12.925L32 33Z" fill="#A8C4FF"/>
<path fill-rule="evenodd" clip-rule="evenodd" d="M32 33L45.1118 12.8462L45.7251 13.2569L32 33Z" fill="#A7C3FF"/>
<path fill-rule="evenodd" clip-rule="evenodd" d="M32 33L45.6027 13.1739L46.2052 13.5982L32 33Z" fill="#A6C3FF"/>
<path fill-rule="evenodd" clip-rule="evenodd" d="M32 33L46.0842 13.5139L46.6771 13.9532L32 33Z" fill="#A5C2FF"/>
<path fill-rule="evenodd" clip-rule="evenodd" d="M32 33L46.5588 13.8648L47.1395 14.319L32 33Z" fill="#A4C1FF"/>
<path fill-rule="evenodd" clip-rule="evenodd" d="M32 33L47.0239 14.2279L47.5938 14.6957L32 33Z" fill="#A3C1FF"/>
<path fill-rule="evenodd" clip-rule="evenodd" d="M32 33L47.4795 14.6033L48.0385 15.0847L32 33Z" fill="#A2C0FF"/>
<path fill-rule="evenodd" clip-rule="evenodd" d="M32 33L47.927 14.9882L48.4737 15.4832L32 33Z" fill="#A1BFFF"/>
<path fill-rule="evenodd" clip-rule="evenodd" d="M32 33L48.3635 15.3839L48.898 15.8926L32 33Z" fill="#A0BFFF"/>
<path fill-rule="evenodd" clip-rule="evenodd" d="M32 33L48.7906 15.7906L49.3128 16.3128L32 33Z" fill="#9FBEFF"/>
<path fill-rule="evenodd" clip-rule="evenodd" d="M32 33L49.2081 16.2094L49.7167 16.7426L32 33Z" fill="#9EBDFF"/>
<path fill-rule="evenodd" clip-rule="evenodd" d="M32 33L49.6161 16.6365L50.1111 17.1832L32 33Z" fill="#9DBDFF"/>
<path fill-rule="evenodd" clip-rule="evenodd" d="M32 33L50.0118 17.073L50.4933 17.632L32 33Z" fill="#9CBCFF"/>
<path fill-rule="evenodd" clip-rule="evenodd" d="M32 33L50.3967 17.5205L50.8646 18.0903L32 33Z" fill="#9BBBFF"/>
<path fill-rule="evenodd" clip-rule="evenodd" d="M32 33L50.7721 17.9761L51.225 18.5582L32 33Z" fill="#9ABAFF"/>
<path fill-rule="evenodd" clip-rule="evenodd" d="M32 33L51.1352 18.4412L51.5745 19.0342L32 33Z" fill="#99BAFF"/>
<path fill-rule="evenodd" clip-rule="evenodd" d="M32 33L51.4861 18.9158L51.9104 19.5183L32 33Z" fill="#98B9FF"/>
<path fill-rule="evenodd" clip-rule="evenodd" d="M32 33L51.8261 19.3973L52.2354 20.0106L32 33Z" fill="#97B8FF"/>
<path fill-rule="evenodd" clip-rule="evenodd" d="M32 33L52.1538 19.8882L52.5482 20.5125L32 33Z" fill="#96B8FF"/>
<path fill-rule="evenodd" clip-rule="evenodd" d="M32 33L52.4694 20.3874L52.8488 21.0198L32 33Z" fill="#95B7FF"/>
<path fill-rule="evenodd" clip-rule="evenodd" d="M32 33L52.7726 20.8933L53.1358 21.5352L32 33Z" fill="#94B6FF"/>
<path fill-rule="evenodd" clip-rule="evenodd" d="M32 33L53.0637 21.4073L53.4105 22.0574L32 33Z" fill="#93B6FF"/>
<path fill-rule="evenodd" clip-rule="evenodd" d="M32 33L53.3411 21.9269L53.673 22.5865L32 33Z" fill="#92B5FF"/>
<path fill-rule="evenodd" clip-rule="evenodd" d="M32 33L53.6077 22.4546L53.9218 23.121L32 33Z" fill="#91B4FF"/>
<path fill-rule="evenodd" clip-rule="evenodd" d="M32 33L53.8593 22.9877L54.1585 23.6622L32 33Z" fill="#90B4FF"/>
<path fill-rule="evenodd" clip-rule="evenodd" d="M32 33L54.0986 23.5262L54.3802 24.209L32 33Z" fill="#8FB3FF"/>
<path fill-rule="evenodd" clip-rule="evenodd" d="M32 33L54.3244 24.0716L54.5896 24.7611L32 33Z" fill="#8EB2FF"/>
<path fill-rule="evenodd" clip-rule="evenodd" d="M32 33L54.5366 24.6224L54.7854 25.3174L32 33Z" fill="#8DB2FF"/>
<path fill-rule="evenodd" clip-rule="evenodd" d="M32 33L54.7351 25.1786L54.9663 25.879L32 33Z" fill="#8CB1FF"/>
<path fill-rule="evenodd" clip-rule="evenodd" d="M32 33L54.9201 25.739L55.135 26.4448L32 33Z" fill="#8BB0FF"/>
<path fill-rule="evenodd" clip-rule="evenodd" d="M32 33L55.0914 26.3033L55.2886 27.0146L32 33Z" fill="#8AB0FF"/>
<path fill-rule="evenodd" clip-rule="evenodd" d="M32 33L55.2492 26.8718L55.4287 27.5872L32 33Z" fill="#89AFFF"/>
<path fill-rule="evenodd" clip-rule="evenodd" d="M32 33L55.3934 27.4444L55.5538 28.1638L32 33Z" fill="#88AEFF"/>
<path fill-rule="evenodd" clip-rule="evenodd" d="M32 33L55.5212 28.021L55.6654 28.7432L32 33Z" fill="#87AEFF"/>
<path fill-rule="evenodd" clip-rule="evenodd" d="M32 33L55.6368 28.599L55.7633 29.3253L32 33Z" fill="#86ADFF"/>
<path fill-rule="evenodd" clip-rule="evenodd" d="M32 33L55.7374 29.1797L55.8462 29.9101L32 33Z" fill="#85ACFF"/>
<path fill-rule="evenodd" clip-rule="evenodd" d="M32 33L55.8245 29.7646L55.9142 30.4962L32 33Z" fill="#84ACFF"/>
<path fill-rule="evenodd" clip-rule="evenodd" d="M32 33L55.8966 30.3494L55.9686 31.0838L32 33Z" fill="#83ABFF"/>
<path fill-rule="evenodd" clip-rule="evenodd" d="M32 33L55.955 30.9369L56.0094 31.6726L32 33Z" fill="#82AAFF"/>
<path fill-rule="evenodd" clip-rule="evenodd" d="M32 33L55.9986 31.5258L56.0339 32.2629L32 33Z" fill="#81AAFF"/>
<path fill-rule="evenodd" clip-rule="evenodd" d="M32 33L56.0271 32.1146L56.0448 32.8517L32 33Z" fill="#80A9FF"/>
<path fill-rule="evenodd" clip-rule="evenodd" d="M32 33L56.0407 32.7049V33.442L32 33Z" fill="#7FA8FF"/>
<path fill-rule="evenodd" clip-rule="evenodd" d="M32 33L56.0407 33.2951L56.023 34.0322L32 33Z" fill="#7EA7FF"/>
<path fill-rule="evenodd" clip-rule="evenodd" d="M32 33L56.0271 33.8854L55.9904 34.6211L32 33Z" fill="#7DA7FF"/>
<path fill-rule="evenodd" clip-rule="evenodd" d="M32 33L55.9986 34.4742L55.9442 35.21L32 33Z" fill="#7CA6FF"/>
<path fill-rule="evenodd" clip-rule="evenodd" d="M32 33L55.955 35.0631L55.883 35.7975L32 33Z" fill="#7BA5FF"/>
<path fill-rule="evenodd" clip-rule="evenodd" d="M32 33L55.8966 35.6493L55.8068 36.3823L32 33Z" fill="#7AA5FF"/>
<path fill-rule="evenodd" clip-rule="evenodd" d="M32 33L55.8245 36.2354L55.7157 36.9658L32 33Z" fill="#79A4FF"/>
<path fill-rule="evenodd" clip-rule="evenodd" d="M32 33L55.7374 36.8189L55.6123 37.5465L32 33Z" fill="#78A3FF"/>
<path fill-rule="evenodd" clip-rule="evenodd" d="M32 33L55.6368 37.401L55.4926 38.1245L32 33Z" fill="#77A3FF"/>
<path fill-rule="evenodd" clip-rule="evenodd" d="M32 33L55.5212 37.979L55.3607 38.6998L32 33Z" fill="#76A2FF"/>
<path fill-rule="evenodd" clip-rule="evenodd" d="M32 33L55.3934 38.5556L55.2138 39.271L32 33Z" fill="#75A1FF"/>
<path fill-rule="evenodd" clip-rule="evenodd" d="M32 33L55.2492 39.1282L55.0534 39.8381L32 33Z" fill="#74A1FF"/>
<path fill-rule="evenodd" clip-rule="evenodd" d="M32 33L55.0914 39.6966L54.8779 40.4025L32 33Z" fill="#73A0FF"/>
<path fill-rule="evenodd" clip-rule="evenodd" d="M32 33L54.9201 40.261L54.6889 40.9614L32 33Z" fill="#729FFF"/>
<path fill-rule="evenodd" clip-rule="evenodd" d="M32 33L54.7351 40.8214L54.4876 41.5163L32 33Z" fill="#719FFF"/>
<path fill-rule="evenodd" clip-rule="evenodd" d="M32 33L54.5366 41.3776L54.2714 42.0658L32 33Z" fill="#709EFF"/>
<path fill-rule="evenodd" clip-rule="evenodd" d="M32 33L54.3244 41.927L54.0415 42.6098L32 33Z" fill="#6F9DFF"/>
<path fill-rule="evenodd" clip-rule="evenodd" d="M32 33L54.0986 42.4724L53.7994 43.147L32 33Z" fill="#6E9DFF"/>
<path fill-rule="evenodd" clip-rule="evenodd" d="M32 33L53.8593 43.0123L53.5438 43.6787L32 33Z" fill="#6D9CFF"/>
<path fill-rule="evenodd" clip-rule="evenodd" d="M32 33L53.6077 43.5454L53.2758 44.205L32 33Z" fill="#6C9BFF"/>
<path fill-rule="evenodd" clip-rule="evenodd" d="M32 33L53.3411 44.0731L52.9943 44.7232L32 33Z" fill="#6B9BFF"/>
<path fill-rule="evenodd" clip-rule="evenodd" d="M32 33L53.0637 44.5926L52.7006 45.2359L32 33Z" fill="#6A9AFF"/>
<path fill-rule="evenodd" clip-rule="evenodd" d="M32 33L52.7726 45.1067L52.3932 45.7391L32 33Z" fill="#6999FF"/>
<path fill-rule="evenodd" clip-rule="evenodd" d="M32 33L52.4694 45.6126L52.075 46.2355L32 33Z" fill="#6899FF"/>
<path fill-rule="evenodd" clip-rule="evenodd" d="M32 33L52.1538 46.1118L51.7431 46.7251L32 33Z" fill="#6798FF"/>
<path fill-rule="evenodd" clip-rule="evenodd" d="M32 33L51.8261 46.6027L51.4018 47.2052L32 33Z" fill="#6697FF"/>
<path fill-rule="evenodd" clip-rule="evenodd" d="M32 33L51.4861 47.0842L51.0468 47.6771L32 33Z" fill="#6597FF"/>
<path fill-rule="evenodd" clip-rule="evenodd" d="M32 33L51.1352 47.5588L50.681 48.1395L32 33Z" fill="#6496FF"/>
<path fill-rule="evenodd" clip-rule="evenodd" d="M32 33L50.7721 48.0239L50.3042 48.5938L32 33Z" fill="#6395FF"/>
<path fill-rule="evenodd" clip-rule="evenodd" d="M32 33L50.3967 48.4795L49.9153 49.0385L32 33Z" fill="#6294FF"/>
<path fill-rule="evenodd" clip-rule="evenodd" d="M32 33L50.0118 48.927L49.5168 49.4737L32 33Z" fill="#6194FF"/>
<path fill-rule="evenodd" clip-rule="evenodd" d="M32 33L49.6161 49.3635L49.1074 49.898L32 33Z" fill="#6093FF"/>
<path fill-rule="evenodd" clip-rule="evenodd" d="M32 33L49.2081 49.7906L48.6872 50.3128L32 33Z" fill="#5F92FF"/>
<path fill-rule="evenodd" clip-rule="evenodd" d="M32 33L48.7906 50.2081L48.2574 50.7167L32 33Z" fill="#5E92FF"/>
<path fill-rule="evenodd" clip-rule="evenodd" d="M32 33L48.3635 50.6161L47.8168 51.1111L32 33Z" fill="#5D91FF"/>
<path fill-rule="evenodd" clip-rule="evenodd" d="M32 33L47.927 51.0118L47.368 51.4933L32 33Z" fill="#5C90FF"/>
<path fill-rule="evenodd" clip-rule="evenodd" d="M32 33L47.4795 51.3967L46.9097 51.8646L32 33Z" fill="#5B90FF"/>
<path fill-rule="evenodd" clip-rule="evenodd" d="M32 33L47.0239 51.7721L46.4418 52.225L32 33Z" fill="#5A8FFF"/>
<path fill-rule="evenodd" clip-rule="evenodd" d="M32 33L46.5588 52.1352L45.9658 52.5745L32 33Z" fill="#598EFF"/>
<path fill-rule="evenodd" clip-rule="evenodd" d="M32 33L46.0842 52.4861L45.4817 52.9104L32 33Z" fill="#588EFF"/>
<path fill-rule="evenodd" clip-rule="evenodd" d="M32 33L45.6027 52.8261L44.988 53.2354L32 33Z" fill="#578DFF"/>
<path fill-rule="evenodd" clip-rule="evenodd" d="M32 33L45.1118 53.1538L44.4875 53.5482L32 33Z" fill="#568CFF"/>
<path fill-rule="evenodd" clip-rule="evenodd" d="M32 33L44.6126 53.4694L43.9802 53.8488L32 33Z" fill="#558CFF"/>
<path fill-rule="evenodd" clip-rule="evenodd" d="M32 33L44.1067 53.7726L43.4648 54.1358L32 33Z" fill="#548BFF"/>
<path fill-rule="evenodd" clip-rule="evenodd" d="M32 33L43.5926 54.0637L42.9426 54.4105L32 33Z" fill="#538AFF"/>
<path fill-rule="evenodd" clip-rule="evenodd" d="M32 33L43.0731 54.3411L42.4135 54.673L32 33Z" fill="#528AFF"/>
<path fill-rule="evenodd" clip-rule="evenodd" d="M32 33L42.5454 54.6077L41.879 54.9218L32 33Z" fill="#5189FF"/>
<path fill-rule="evenodd" clip-rule="evenodd" d="M32 33L42.0123 54.8593L41.3378 55.1585L32 33Z" fill="#5088FF"/>
<path fill-rule="evenodd" clip-rule="evenodd" d="M32 33L41.4724 55.0986L40.791 55.3802L32 33Z" fill="#4F88FF"/>
<path fill-rule="evenodd" clip-rule="evenodd" d="M32 33L40.927 55.3244L40.2389 55.5896L32 33Z" fill="#4E87FF"/>
<path fill-rule="evenodd" clip-rule="evenodd" d="M32 33L40.3776 55.5366L39.6826 55.7854L32 33Z" fill="#4D86FF"/>
<path fill-rule="evenodd" clip-rule="evenodd" d="M32 33L39.8214 55.7351L39.121 55.9663L32 33Z" fill="#4C86FF"/>
<path fill-rule="evenodd" clip-rule="evenodd" d="M32 33L39.261 55.9201L38.5552 56.135L32 33Z" fill="#4B85FF"/>
<path fill-rule="evenodd" clip-rule="evenodd" d="M32 33L38.6966 56.0914L37.9854 56.2886L32 33Z" fill="#4A84FF"/>
<path fill-rule="evenodd" clip-rule="evenodd" d="M32 33L38.1282 56.2492L37.4114 56.4287L32 33Z" fill="#4984FF"/>
<path fill-rule="evenodd" clip-rule="evenodd" d="M32 33L37.5556 56.3934L36.8362 56.5538L32 33Z" fill="#4883FF"/>
<path fill-rule="evenodd" clip-rule="evenodd" d="M32 33L36.979 56.5212L36.2554 56.6654L32 33Z" fill="#4782FF"/>
<path fill-rule="evenodd" clip-rule="evenodd" d="M32 33L36.401 56.6368L35.6747 56.7633L32 33Z" fill="#4681FF"/>
<path fill-rule="evenodd" clip-rule="evenodd" d="M32 33L35.8189 56.7374L35.0899 56.8462L32 33Z" fill="#4581FF"/>
<path fill-rule="evenodd" clip-rule="evenodd" d="M32 33L35.2354 56.8245L34.5038 56.9142L32 33Z" fill="#4480FF"/>
<path fill-rule="evenodd" clip-rule="evenodd" d="M32 33L34.6493 56.8966L33.9162 56.9686L32 33Z" fill="#437FFF"/>
<path fill-rule="evenodd" clip-rule="evenodd" d="M32 33L34.0631 56.955L33.3274 57.0094L32 33Z" fill="#427FFF"/>
<path fill-rule="evenodd" clip-rule="evenodd" d="M32 33L33.4742 56.9986L32.7371 57.0339L32 33Z" fill="#417EFF"/>
<path fill-rule="evenodd" clip-rule="evenodd" d="M32 33L32.8854 57.0271L32.1469 57.0448L32 33Z" fill="#407DFF"/>
<path fill-rule="evenodd" clip-rule="evenodd" d="M32 33L32.2951 57.0407H31.5566L32 33Z" fill="#3F7DFF"/>
<path fill-rule="evenodd" clip-rule="evenodd" d="M32 33L31.7049 57.0407L30.9678 57.023L32 33Z" fill="#3E7CFF"/>
<path fill-rule="evenodd" clip-rule="evenodd" d="M31.9999 33L31.1146 57.0271L30.3774 56.9904L31.9999 33Z" fill="#3D7BFF"/>
<path fill-rule="evenodd" clip-rule="evenodd" d="M32 33L30.5258 56.9986L29.79 56.9442L32 33Z" fill="#3C7BFF"/>
<path fill-rule="evenodd" clip-rule="evenodd" d="M31.9997 33L29.9365 56.955L29.2021 56.883L31.9997 33Z" fill="#3B7AFF"/>
<path fill-rule="evenodd" clip-rule="evenodd" d="M32 33L29.3494 56.8966L28.6177 56.8068L32 33Z" fill="#3A79FF"/>
<path fill-rule="evenodd" clip-rule="evenodd" d="M31.9999 33L28.7645 56.8245L28.0342 56.7157L31.9999 33Z" fill="#3979FF"/>
<path fill-rule="evenodd" clip-rule="evenodd" d="M32.0001 33L28.1799 56.7374L27.4536 56.6123L32.0001 33Z" fill="#3878FF"/>
<path fill-rule="evenodd" clip-rule="evenodd" d="M32 33L27.599 56.6368L26.8755 56.4926L32 33Z" fill="#3777FF"/>
<path fill-rule="evenodd" clip-rule="evenodd" d="M32.0001 33L27.0211 56.5212L26.3003 56.3607L32.0001 33Z" fill="#3677FF"/>
<path fill-rule="evenodd" clip-rule="evenodd" d="M32 33L26.4444 56.3934L25.729 56.2138L32 33Z" fill="#3576FF"/>
<path fill-rule="evenodd" clip-rule="evenodd" d="M32.0001 33L25.8719 56.2492L25.1606 56.0534L32.0001 33Z" fill="#3475FF"/>
<path fill-rule="evenodd" clip-rule="evenodd" d="M31.9996 33L25.303 56.0914L24.5972 55.8779L31.9996 33Z" fill="#3375FF"/>
<path fill-rule="evenodd" clip-rule="evenodd" d="M32 33L24.739 55.9201L24.0386 55.6889L32 33Z" fill="#3274FF"/>
<path fill-rule="evenodd" clip-rule="evenodd" d="M31.9997 33L24.1784 55.7351L23.4834 55.4876L31.9997 33Z" fill="#3173FF"/>
<path fill-rule="evenodd" clip-rule="evenodd" d="M31.9998 33L23.6222 55.5366L22.9341 55.2714L31.9998 33Z" fill="#3073FF"/>
<path fill-rule="evenodd" clip-rule="evenodd" d="M31.9999 33L23.0715 55.3244L22.3901 55.0415L31.9999 33Z" fill="#2F72FF"/>
<path fill-rule="evenodd" clip-rule="evenodd" d="M32 33L22.5262 55.0986L21.853 54.7994L32 33Z" fill="#2E71FF"/>
<path fill-rule="evenodd" clip-rule="evenodd" d="M32 33L21.9877 54.8593L21.3213 54.5438L32 33Z" fill="#2D71FF"/>
<path fill-rule="evenodd" clip-rule="evenodd" d="M32 33L21.4545 54.6077L20.7949 54.2758L32 33Z" fill="#2C70FF"/>
<path fill-rule="evenodd" clip-rule="evenodd" d="M32.0001 33L20.9269 54.3411L20.2769 53.9943L32.0001 33Z" fill="#2B6FFF"/>
<path fill-rule="evenodd" clip-rule="evenodd" d="M32.0001 33L20.4074 54.0637L19.7642 53.7006L32.0001 33Z" fill="#2A6EFF"/>
<path fill-rule="evenodd" clip-rule="evenodd" d="M31.9999 33L19.8931 53.7726L19.2607 53.3932L31.9999 33Z" fill="#296EFF"/>
<path fill-rule="evenodd" clip-rule="evenodd" d="M32.0001 33L19.3874 53.4694L18.7632 53.075L32.0001 33Z" fill="#286DFF"/>
<path fill-rule="evenodd" clip-rule="evenodd" d="M32 33L18.8883 53.1538L18.2749 52.7431L32 33Z" fill="#276CFF"/>
<path fill-rule="evenodd" clip-rule="evenodd" d="M31.9996 33L18.3969 52.8261L17.7944 52.4018L31.9996 33Z" fill="#266CFF"/>
<path fill-rule="evenodd" clip-rule="evenodd" d="M31.9999 33L17.9157 52.4861L17.3228 52.0468L31.9999 33Z" fill="#256BFF"/>
<path fill-rule="evenodd" clip-rule="evenodd" d="M31.9998 33L17.441 52.1352L16.8589 51.681L31.9998 33Z" fill="#246AFF"/>
<path fill-rule="evenodd" clip-rule="evenodd" d="M32 33L16.9761 51.7721L16.4062 51.3042L32 33Z" fill="#236AFF"/>
<path fill-rule="evenodd" clip-rule="evenodd" d="M31.9999 33L16.5204 51.3967L15.9614 50.9153L31.9999 33Z" fill="#2269FF"/>
<path fill-rule="evenodd" clip-rule="evenodd" d="M32 33L16.0731 51.0118L15.5264 50.5168L32 33Z" fill="#2168FF"/>
<path fill-rule="evenodd" clip-rule="evenodd" d="M32.0001 33L15.6365 50.6161L15.1021 50.1074L32.0001 33Z" fill="#2068FF"/>
<path fill-rule="evenodd" clip-rule="evenodd" d="M31.9998 33L15.2093 50.2081L14.687 49.6872L31.9998 33Z" fill="#1F67FF"/>
<path fill-rule="evenodd" clip-rule="evenodd" d="M31.9999 33L14.7905 49.7906L14.2832 49.2574L31.9999 33Z" fill="#1E66FF"/>
<path fill-rule="evenodd" clip-rule="evenodd" d="M31.9998 33L14.3837 49.3635L13.8887 48.8168L31.9998 33Z" fill="#1D66FF"/>
<path fill-rule="evenodd" clip-rule="evenodd" d="M32.0001 33L13.9883 48.927L13.5068 48.368L32.0001 33Z" fill="#1C65FF"/>
<path fill-rule="evenodd" clip-rule="evenodd" d="M31.9998 33L13.6031 48.4795L13.1353 47.9097L31.9998 33Z" fill="#1B64FF"/>
<path fill-rule="evenodd" clip-rule="evenodd" d="M31.9999 33L13.2278 48.0239L12.7749 47.4418L31.9999 33Z" fill="#1A64FF"/>
<path fill-rule="evenodd" clip-rule="evenodd" d="M31.9998 33L12.8646 47.5588L12.4253 46.9658L31.9998 33Z" fill="#1963FF"/>
<path fill-rule="evenodd" clip-rule="evenodd" d="M31.9998 33L12.5137 47.0842L12.0894 46.4817L31.9998 33Z" fill="#1862FF"/>
<path fill-rule="evenodd" clip-rule="evenodd" d="M32.0001 33L12.174 46.6027L11.7646 45.988L32.0001 33Z" fill="#1762FF"/>
<path fill-rule="evenodd" clip-rule="evenodd" d="M31.9999 33L11.8461 46.1118L11.4517 45.4875L31.9999 33Z" fill="#1661FF"/>
<path fill-rule="evenodd" clip-rule="evenodd" d="M31.9997 33L11.5303 45.6126L11.1509 44.9802L31.9997 33Z" fill="#1560FF"/>
<path fill-rule="evenodd" clip-rule="evenodd" d="M32 33L11.2274 45.1067L10.8643 44.4648L32 33Z" fill="#1460FF"/>
<path fill-rule="evenodd" clip-rule="evenodd" d="M31.9997 33L10.9361 44.5926L10.5879 43.9426L31.9997 33Z" fill="#135FFF"/>
<path fill-rule="evenodd" clip-rule="evenodd" d="M32.0001 33L10.6576 44.0731L10.3271 43.4135L32.0001 33Z" fill="#125EFF"/>
<path fill-rule="evenodd" clip-rule="evenodd" d="M32 33L10.3923 43.5454L10.0781 42.879L32 33Z" fill="#115EFF"/>
<path fill-rule="evenodd" clip-rule="evenodd" d="M31.9998 33L10.1405 43.0123L9.84131 42.3378L31.9998 33Z" fill="#105DFF"/>
<path fill-rule="evenodd" clip-rule="evenodd" d="M31.9997 33L9.90104 42.4724L9.61816 41.791L31.9997 33Z" fill="#0F5CFF"/>
<path fill-rule="evenodd" clip-rule="evenodd" d="M31.9998 33L9.67536 41.927L9.41016 41.2389L31.9998 33Z" fill="#0E5BFF"/>
<path fill-rule="evenodd" clip-rule="evenodd" d="M31.9998 33L9.46324 41.3776L9.21436 40.6826L31.9998 33Z" fill="#0D5BFF"/>
<path fill-rule="evenodd" clip-rule="evenodd" d="M32 33L9.26353 40.8214L9.03369 40.121L32 33Z" fill="#0C5AFF"/>
<path fill-rule="evenodd" clip-rule="evenodd" d="M31.9997 33L9.07827 40.261L8.86475 39.5552L31.9997 33Z" fill="#0B59FF"/>
<path fill-rule="evenodd" clip-rule="evenodd" d="M32.0001 33L8.90727 39.6966L8.71143 38.9854L32.0001 33Z" fill="#0A59FF"/>
<path fill-rule="evenodd" clip-rule="evenodd" d="M32 33L8.75081 39.1282L8.57129 38.4114L32 33Z" fill="#0958FF"/>
<path fill-rule="evenodd" clip-rule="evenodd" d="M31.9996 33L8.60628 38.5556L8.4458 37.8362L31.9996 33Z" fill="#0857FF"/>
<path fill-rule="evenodd" clip-rule="evenodd" d="M31.9998 33L8.47727 37.979L8.33447 37.2554L31.9998 33Z" fill="#0757FF"/>
<path fill-rule="evenodd" clip-rule="evenodd" d="M32.0001 33L8.3633 37.401L8.23682 36.6747L32.0001 33Z" fill="#0656FF"/>
<path fill-rule="evenodd" clip-rule="evenodd" d="M32 33L8.26261 36.8189L8.15381 36.0899L32 33Z" fill="#0555FF"/>
<path fill-rule="evenodd" clip-rule="evenodd" d="M31.9997 33L8.17521 36.2354L8.08545 35.5038L31.9997 33Z" fill="#0455FF"/>
<path fill-rule="evenodd" clip-rule="evenodd" d="M31.9999 33L8.10333 35.6493L8.03125 34.9162L31.9999 33Z" fill="#0354FF"/>
<path fill-rule="evenodd" clip-rule="evenodd" d="M31.9997 33L8.04463 35.0631L7.99023 34.3274L31.9997 33Z" fill="#0253FF"/>
<path fill-rule="evenodd" clip-rule="evenodd" d="M31.9997 33L8.00118 34.4742L7.96582 33.7371L31.9997 33Z" fill="#0153FF"/>
<path fill-rule="evenodd" clip-rule="evenodd" d="M31.9999 33L7.97276 33.8854L7.95508 33.1469L31.9999 33Z" fill="#0052FF"/>
<path fill-rule="evenodd" clip-rule="evenodd" d="M32.0001 33L7.95801 33.2951V32.7049L32.0001 33Z" fill="white"/>
</g>
</g>
<defs>
<clipPath id="clip0_1402_7">
<rect width="34" height="34" fill="white" transform="translate(15 16)"/>
</clipPath>
</defs>
</svg>
