<svg width="65" height="65" viewBox="0 0 65 65" fill="none" xmlns="http://www.w3.org/2000/svg">
<path d="M1 32.5C1 15.103 15.103 1 32.5 1C49.897 1 64 15.103 64 32.5C64 49.897 49.897 64 32.5 64C15.103 64 1 49.897 1 32.5Z" fill="white" stroke="#F3F3F3" stroke-width="2"/>
<mask id="mask0_1402_8" style="mask-type:luminance" maskUnits="userSpaceOnUse" x="17" y="17" width="32" height="33">
<path d="M48.924 17H17V49.0254H48.924V17Z" fill="white"/>
</mask>
<g mask="url(#mask0_1402_8)">
<path d="M48.7055 42.25L43.4907 48.5884C43.378 48.726 43.2414 48.8359 43.0895 48.9111C42.9376 48.9863 42.7736 49.0252 42.6079 49.0254H17.8881C17.7702 49.0253 17.6549 48.9863 17.5563 48.9131C17.4576 48.8398 17.38 48.7355 17.3328 48.6131C17.2857 48.4906 17.271 48.3551 17.2907 48.2234C17.3104 48.0916 17.3636 47.9691 17.4437 47.8712L22.6526 41.5328C22.7654 41.3952 22.9019 41.2853 23.0538 41.2101C23.2057 41.1349 23.3697 41.096 23.5354 41.0958H48.2552C48.3741 41.093 48.4912 41.1302 48.5916 41.2026C48.6919 41.2751 48.7714 41.3795 48.8194 41.5029C48.8676 41.6264 48.8823 41.7631 48.862 41.8961C48.8417 42.029 48.7873 42.1521 48.7055 42.25ZM43.4907 29.4833C43.3775 29.3462 43.2409 29.2368 43.0891 29.1617C42.9373 29.0865 42.7735 29.0473 42.6079 29.0463H17.8881C17.7702 29.0464 17.6549 29.0855 17.5563 29.1587C17.4576 29.2319 17.38 29.3362 17.3328 29.4586C17.2857 29.5812 17.271 29.7166 17.2907 29.8484C17.3104 29.9801 17.3636 30.1025 17.4437 30.2006L22.6526 36.5423C22.7658 36.6793 22.9025 36.7887 23.0543 36.8639C23.206 36.939 23.3698 36.9783 23.5354 36.9792H48.2552C48.3729 36.9785 48.4877 36.939 48.586 36.8655C48.6843 36.7921 48.7614 36.6878 48.8082 36.5654C48.8549 36.443 48.8694 36.3079 48.8494 36.1764C48.8296 36.0449 48.7767 35.9228 48.6966 35.825L43.4907 29.4833ZM17.8881 24.9297H42.6079C42.7736 24.9296 42.9376 24.8906 43.0895 24.8154C43.2414 24.7402 43.378 24.6304 43.4907 24.4927L48.7055 18.1544C48.7873 18.0565 48.8417 17.9333 48.862 17.8004C48.8823 17.6674 48.8676 17.5307 48.8194 17.4073C48.7714 17.2839 48.6919 17.1794 48.5916 17.107C48.4912 17.0345 48.3741 16.9974 48.2552 17.0001H23.5354C23.3697 17.0003 23.2057 17.0392 23.0538 17.1144C22.9019 17.1896 22.7654 17.2995 22.6526 17.4372L17.4437 23.7755C17.3636 23.8735 17.3104 23.9959 17.2907 24.1277C17.271 24.2595 17.2857 24.3949 17.3328 24.5174C17.38 24.6399 17.4576 24.7441 17.5563 24.8174C17.6549 24.8906 17.7702 24.9296 17.8881 24.9297Z" fill="url(#paint0_linear_1402_8)"/>
</g>
<defs>
<linearGradient id="paint0_linear_1402_8" x1="19.9481" y1="49.7893" x2="49.5423" y2="20.3571" gradientUnits="userSpaceOnUse">
<stop offset="0.08" stop-color="#9945FF"/>
<stop offset="0.3" stop-color="#8752F3"/>
<stop offset="0.5" stop-color="#5497D5"/>
<stop offset="0.6" stop-color="#43B4CA"/>
<stop offset="0.72" stop-color="#28E0B9"/>
<stop offset="0.97" stop-color="#19FB9B"/>
</linearGradient>
</defs>
</svg>
