<svg width="65" height="65" viewBox="0 0 65 65" fill="none" xmlns="http://www.w3.org/2000/svg">
<path d="M1 32.5C1 15.103 15.103 1 32.5 1C49.897 1 64 15.103 64 32.5C64 49.897 49.897 64 32.5 64C15.103 64 1 49.897 1 32.5Z" fill="white" stroke="#F3F3F3" stroke-width="2"/>
<path d="M33.277 9L33.001 10.0939V41.8322L33.277 42.1535L45.9047 33.4451L33.277 9Z" fill="#343434"/>
<path d="M33.2769 9L20.6489 33.4451L33.2769 42.1535V26.7486V9Z" fill="#8C8C8C"/>
<path d="M33.2767 44.9427L33.1211 45.164V56.4697L33.2767 56.9995L45.912 36.2389L33.2767 44.9427Z" fill="#3C3C3B"/>
<path d="M33.2769 56.9995V44.9427L20.6489 36.2389L33.2769 56.9995Z" fill="#8C8C8C"/>
<path d="M33.2773 42.1538L45.9051 33.4454L33.2773 26.7489V42.1538Z" fill="#141414"/>
<path d="M20.6489 33.4448L33.2769 42.1533V26.7484L20.6489 33.4448Z" fill="#393939"/>
</svg>
