<svg width="65" height="65" viewBox="0 0 65 65" fill="none" xmlns="http://www.w3.org/2000/svg">
<path d="M1 32.5C1 15.103 15.103 1 32.5 1C49.897 1 64 15.103 64 32.5C64 49.897 49.897 64 32.5 64C15.103 64 1 49.897 1 32.5Z" fill="white" stroke="#F3F3F3" stroke-width="2"/>
<mask id="mask0_1402_4" style="mask-type:luminance" maskUnits="userSpaceOnUse" x="16" y="16" width="34" height="35">
<path d="M49.4358 16H16V50.2408H49.4358V16Z" fill="white"/>
</mask>
<g mask="url(#mask0_1402_4)">
<path d="M41.2505 26.4247C40.641 26.0158 39.8574 26.0158 39.1608 26.4247L34.2847 29.7977L30.9759 31.9441L26.187 35.317C25.5775 35.7259 24.7938 35.7259 24.0972 35.317L20.3531 32.6595C19.7436 32.2507 19.3083 31.4331 19.3083 30.5131V25.4025C19.3083 24.5849 19.6566 23.7672 20.3531 23.2561L24.0972 20.7008C24.7067 20.292 25.4904 20.292 26.187 20.7008L29.9311 23.3583C30.5406 23.7672 30.9759 24.5849 30.9759 25.5048V28.8777L34.2847 26.6291V23.1539C34.2847 22.3362 33.9364 21.5185 33.2399 21.0075L26.2741 16.2035C25.6646 15.7947 24.8809 15.7947 24.1843 16.2035L17.0444 21.1097C16.3478 21.5185 15.9995 22.3362 15.9995 23.1539V32.7618C15.9995 33.5795 16.3478 34.3972 17.0444 34.9082L24.0972 39.7121C24.7067 40.121 25.4904 40.121 26.187 39.7121L30.9759 36.4413L34.2847 34.1927L39.0737 30.922C39.6832 30.5131 40.4668 30.5131 41.1635 30.922L44.9076 33.4772C45.5171 33.8861 45.9524 34.7038 45.9524 35.6237V40.7342C45.9524 41.5519 45.6041 42.3696 44.9076 42.8806L41.2505 45.436C40.641 45.8448 39.8574 45.8448 39.1608 45.436L35.4167 42.8806C34.8071 42.4719 34.3718 41.6542 34.3718 40.7342V37.4635L31.063 39.7121V43.0851C31.063 43.9028 31.4114 44.7205 32.1079 45.2315L39.1608 50.0355C39.7703 50.4443 40.5539 50.4443 41.2505 50.0355L48.3034 45.2315C48.9129 44.8227 49.3483 44.005 49.3483 43.0851V33.375C49.3483 32.5574 49 31.7397 48.3034 31.2286L41.2505 26.4247Z" fill="#8247E5"/>
</g>
</svg>
