<svg width="65" height="65" viewBox="0 0 65 65" fill="none" xmlns="http://www.w3.org/2000/svg">
<path d="M1 32.5C1 15.103 15.103 1 32.5 1C49.897 1 64 15.103 64 32.5C64 49.897 49.897 64 32.5 64C15.103 64 1 49.897 1 32.5Z" fill="white" stroke="#F3F3F3" stroke-width="2"/>
<path d="M32.5 63C49.3447 63 63 49.3447 63 32.5C63 15.6553 49.3447 2 32.5 2C15.6553 2 2 15.6553 2 32.5C2 49.3447 15.6553 63 32.5 63Z" fill="#FF0420"/>
<path d="M23.6114 40.606C21.7954 40.606 20.3074 40.1787 19.1477 39.3241C18.003 38.4541 17.4307 37.218 17.4307 35.6156C17.4307 35.2798 17.4689 34.8677 17.5451 34.3793C17.7437 33.2806 18.026 31.9605 18.3921 30.4191C19.4299 26.2223 22.1083 24.1239 26.4271 24.1239C27.6023 24.1239 28.6552 24.3223 29.5862 24.7191C30.5172 25.1005 31.2498 25.6806 31.7838 26.4589C32.318 27.2218 32.5851 28.1376 32.5851 29.2058C32.5851 29.5263 32.547 29.9308 32.4706 30.4191C32.2417 31.7774 31.967 33.0974 31.6466 34.3793C31.1124 36.4702 30.1891 38.0345 28.8766 39.0722C27.5641 40.0947 25.8092 40.606 23.6114 40.606ZM23.932 37.3095C24.7867 37.3095 25.5114 37.0578 26.1067 36.5541C26.7172 36.0506 27.1522 35.2798 27.4116 34.2421C27.7625 32.8075 28.0297 31.556 28.2128 30.4878C28.2738 30.1673 28.3043 29.8393 28.3043 29.5034C28.3043 28.1146 27.5793 27.4202 26.1297 27.4202C25.275 27.4202 24.5424 27.6721 23.932 28.1756C23.3368 28.6794 22.9095 29.4501 22.6501 30.4878C22.3753 31.5103 22.1006 32.7618 21.826 34.2421C21.7649 34.5472 21.7344 34.8677 21.7344 35.2035C21.7344 36.6076 22.4669 37.3095 23.932 37.3095Z" fill="white"/>
<path d="M33.6354 40.3777C33.4675 40.3777 33.3377 40.3242 33.2462 40.2173C33.1699 40.0952 33.1471 39.9579 33.1776 39.8053L36.3366 24.9257C36.3671 24.7578 36.451 24.6204 36.5884 24.5135C36.7258 24.4067 36.8707 24.3533 37.0234 24.3533H43.1126C44.8066 24.3533 46.1648 24.7043 47.1873 25.4062C48.2252 26.1083 48.7441 27.1233 48.7441 28.4509C48.7441 28.8324 48.6982 29.2294 48.6067 29.6412C48.2252 31.3963 47.4545 32.6936 46.2947 33.5329C45.15 34.3724 43.5781 34.792 41.5788 34.792H38.4884L37.4354 39.8053C37.4049 39.9732 37.321 40.1104 37.1837 40.2173C37.0463 40.3242 36.9012 40.3777 36.7487 40.3777H33.6354ZM41.7391 31.6329C42.3801 31.6329 42.937 31.4573 43.4102 31.1064C43.8985 30.7554 44.2191 30.2518 44.3717 29.5955C44.4175 29.3361 44.4404 29.1072 44.4404 28.9088C44.4404 28.4661 44.3107 28.1305 44.0512 27.9016C43.7916 27.6573 43.3492 27.5353 42.7234 27.5353H39.9764L39.1065 31.6329H41.7391Z" fill="white"/>
</svg>
